<?xml version="1.0" encoding="utf-8"?>
<!-- Generator: Adobe Illustrator 12.0.0, SVG Export Plug-In . SVG Version: 6.00 Build 51448)  -->
<!DOCTYPE svg PUBLIC "-//W3C//DTD SVG 1.1//EN" "http://www.w3.org/Graphics/SVG/1.1/DTD/svg11.dtd" [
	<!ENTITY ns_svg "http://www.w3.org/2000/svg">
	<!ENTITY ns_xlink "http://www.w3.org/1999/xlink">
]>
<svg  version="1.1" id="Layer_1" xmlns="&ns_svg;" xmlns:xlink="&ns_xlink;" width="751" height="601" viewBox="0 0 751 601"
	 overflow="visible" enable-background="new 0 0 751 601" xml:space="preserve">
<g>
	<g>
		<g>
			<path fill="#FFFFFF" d="M0.5,50.5c0-27.6142578,22.3852539-50,50-50h650c27.6142578,0,50,22.3857422,50,50v500
				c0,27.6152344-22.3857422,50-50,50h-650c-27.6147461,0-50-22.3847656-50-50V50.5L0.5,50.5z"/>
			<path fill="#FFFFFF" d="M375.5,300.5"/>
		</g>
		<g>
			<path fill="none" stroke="#000000" stroke-linecap="round" stroke-linejoin="round" stroke-miterlimit="3.863693" d="M0.5,50.5
				c0-27.6142578,22.3852539-50,50-50h650c27.6142578,0,50,22.3857422,50,50v500c0,27.6152344-22.3857422,50-50,50h-650
				c-27.6147461,0-50-22.3847656-50-50V50.5L0.5,50.5z"/>
			<path fill="none" stroke="#000000" stroke-linecap="round" stroke-linejoin="round" stroke-miterlimit="3.863693" d="
				M375.5,300.5"/>
		</g>
	</g>
	<g>
		<g>
			<path d="M10.5,50.5c0-22.0913086,17.9082031-40,40-40h650c22.0917969,0,40,17.9086914,40,40v500
				c0,22.0917969-17.9082031,40-40,40h-650c-22.0917969,0-40-17.9082031-40-40V50.5L10.5,50.5z"/>
			<path d="M375.5,300.5"/>
		</g>
	</g>
	<g>
		<g>
			<path fill="#FFFFFF" d="M25.5,50.5c0-13.8071289,11.1928711-25,25-25h650c13.8076172,0,25,11.1928711,25,25v500
				c0,13.8076172-11.1923828,25-25,25h-650c-13.8071289,0-25-11.1923828-25-25V50.5L25.5,50.5z"/>
			<path fill="#FFFFFF" d="M375.5,300.5"/>
		</g>
	</g>
</g>
<g>
	<path fill-rule="evenodd" clip-rule="evenodd" d="M104.5712891,445.3125V210.5864258H78.2021484v-36.7436523h3.0258789
		c6.0522461,0,12.1040039-1.5844727,18.1557617-4.7548828c6.0517578-3.1699219,11.0952148-7.637207,15.1298828-13.4003906
		h36.7431641v289.625H104.5712891z"/>
	<path fill-rule="evenodd" clip-rule="evenodd" d="M213.8359375,445.3125
		c0.5766602-17.0019531,2.7382813-32.5644531,6.484375-46.6855469c3.746582-14.1210938,9.6542969-28.0976563,17.7236328-41.9316406
		c6.0517578-10.9511719,13.5444336-21.109375,22.4780273-30.4746094
		c8.934082-9.3662109,18.4438477-17.7949219,28.5302734-25.2880859c2.59375-1.440918,4.8994141-2.9541016,6.9165039-4.5390625
		c2.0175781-1.5849609,4.034668-3.0981445,6.0517578-4.5390625l15.5620117-8.2133789l14.2651367-8.2133789l13.8330078-7.78125
		c5.7636719-3.7456055,10.4467773-8.4287109,14.0488281-14.0488281c3.6025391-5.6191406,5.4033203-11.4545898,5.4033203-17.5068359
		c0-5.4755859-1.440918-10.5908203-4.3222656-15.3461914c-2.8823242-4.7543945-6.7006836-8.8613281-11.4555664-12.3193359
		c-4.7553711-3.4580078-10.3027344-6.1958008-16.6425781-8.2133789c-6.340332-2.0170898-13.112793-3.0258789-20.3168945-3.0258789
		c-14.6977539,0-26.5849609,3.4580078-35.6630859,10.3745117c-9.0776367,6.9160156-14.7695313,17.0029297-17.0751953,30.2592773
		l-45.8212891-9.9423828c4.8994141-24.2070313,16.1386719-43.1552734,33.7177734-56.8442383
		C265.1328125,157.3447266,286.7470703,150.5,312.3955078,150.5c13.8325195,0,26.7290039,2.3056641,38.6884766,6.9165039
		c11.9599609,4.6108398,22.3344727,10.8071289,31.1240234,18.5878906c8.7900391,7.78125,15.7783203,16.9311523,20.9658203,27.449707
		c5.1865234,10.5185547,7.7802734,21.6860352,7.7802734,33.5014648c0,11.2392578-2.5214844,22.262207-7.5644531,33.0688477
		c-5.0429688,10.8071289-12.3203125,20.3891602-21.8300781,28.746582c-2.3056641,1.7290039-4.3945313,3.3129883-6.2680664,4.7543945
		c-1.8730469,1.4414063-3.8183594,2.59375-5.8354492,3.4589844l-14.265625,9.0771484l-15.5615234,8.2138672l-14.2651367,8.2128906
		c-6.9165039,4.0351563-13.0405273,8.2851563-18.3720703,12.7519531s-10.2304688,9.2949219-14.6972656,14.4824219
		c-4.4667969,5.1865234-8.6455078,10.9501953-12.5361328,17.2900391
		c-3.8901367,6.3398438-7.5649414,13.5449219-11.0229492,21.6142578h142.21875V445.3125H213.8359375z"/>
	<path fill-rule="evenodd" clip-rule="evenodd" d="M672.7978516,300.9326172
		c0,23.0546875-2.7382813,45.1005859-8.2138672,66.1376953c-5.4746094,21.0380859-13.2558594,38.0410156-23.3427734,51.0097656
		C625.1035156,439.6933594,601.7607422,450.5,571.2128906,450.5c-20.4609375,0-37.3203125-4.1787109-50.5761719-12.5361328
		c-13.2568359-8.3564453-24.2080078-21.4697266-32.8535156-39.3369141
		c-6.0517578-12.3925781-10.9511719-27.4492188-14.6972656-45.1728516s-5.6191406-35.2304688-5.6191406-52.5214844
		c0-23.9199219,2.8095703-46.1098633,8.4287109-66.5708008c5.6201172-20.4609375,13.3291016-37.6079102,23.1269531-51.440918
		c8.6455078-10.9511719,18.9482422-19.0922852,30.9082031-24.4238281C541.8896484,153.1660156,556.2275391,150.5,572.9414063,150.5
		c18.4443359,0,34.1503906,4.1787109,47.1181641,12.5361328c12.96875,8.3574219,24.0634766,21.4697266,33.2861328,39.3374023
		c6.0517578,12.9682617,10.8066406,28.0976563,14.2646484,45.3891602
		C671.0683594,265.0532227,672.7978516,282.7768555,672.7978516,300.9326172z M626.9765625,300.9326172
		c0-16.4267578-1.4414063-31.628418-4.3232422-45.6054688c-2.8818359-13.9765625-7.2041016-25.8642578-12.9677734-35.6625977
		c-4.6113281-7.4926758-9.8701172-12.96875-15.7783203-16.4267578c-5.9072266-3.4580078-13.1845703-5.4750977-21.8300781-6.0517578
		c-11.2392578-0.5761719-20.6054688,2.0170898-28.0976563,7.78125
		c-7.4931641,5.7636719-13.6894531,15.1293945-18.5878906,28.0976563
		c-3.7470703,8.6455078-6.5566406,19.0922852-8.4296875,31.340332c-1.8730469,12.2475586-2.8095703,24.4233398-2.8095703,36.5273438
		c0,15.5615234,1.4404297,30.5478516,4.3222656,44.9560547c2.8818359,14.4101563,7.2050781,26.2255859,12.96875,35.4472656
		c4.6113281,7.4921875,10.0859375,13.1123047,16.4267578,16.859375c6.3398438,3.7460938,14.1210938,5.6191406,23.3427734,5.6191406
		c10.6621094,0,19.5244141-2.8818359,26.5849609-8.6455078s13.0400391-15.1298828,17.9394531-28.0986328
		c1.4404297-3.7460938,2.8818359-8.2851563,4.3222656-13.6162109c1.4414063-5.3310547,2.6660156-10.9511719,3.6748047-16.8583984
		c1.0087891-5.9082031,1.8007813-11.8886719,2.3769531-17.9394531
		C626.6884766,312.6035156,626.9765625,306.6953125,626.9765625,300.9326172z"/>
</g>
</svg>
